<svg width="37" height="37" viewBox="0 0 37 37" fill="none" xmlns="http://www.w3.org/2000/svg">
<path d="M18.5 37C28.7173 37 37 28.7173 37 18.5C37 8.28273 28.7173 0 18.5 0C8.28273 0 0 8.28273 0 18.5C0 28.7173 8.28273 37 18.5 37Z" fill="#FAC960"/>
<path opacity="0.3" d="M24.2809 16.9309L26.1186 13.9771L18.4027 11.0472L22.4288 6.54969L20.6857 4.82782L12.7211 10.0229L14.3594 11.8311L12.7211 13.9771L18.4582 17.8093L11.2096 23.6601L19.044 30.3071L28.0021 19.2044L24.2809 16.9309Z" fill="white"/>
<path d="M15.072 21.9088C12.234 21.9088 9.93314 24.2096 9.93314 27.0477C9.93314 29.8857 12.234 32.1866 15.072 32.1866C17.9101 32.1866 20.2109 29.8857 20.2109 27.0477C20.2109 24.2096 17.9101 21.9088 15.072 21.9088ZM24.6646 13.6866C22.583 13.6866 20.8961 15.3735 20.8961 17.4551C20.8961 19.5367 22.583 21.2236 24.6646 21.2236C26.7462 21.2236 28.4331 19.5367 28.4331 17.4551C28.4331 15.3735 26.7455 13.6866 24.6646 13.6866ZM14.2197 14.4841C15.5914 14.4841 16.7035 13.3721 16.7035 12.0003C16.7035 10.6286 15.5914 9.51654 14.2197 9.51654C12.8479 9.51654 11.7359 10.6286 11.7359 12.0003C11.7359 13.3721 12.8479 14.4841 14.2197 14.4841ZM22.8132 5.65963C22.8132 4.9813 22.2637 4.43178 21.5854 4.43178C20.9071 4.43178 20.3575 4.9813 20.3575 5.65963C20.3575 6.33796 20.9071 6.88748 21.5854 6.88748C22.2637 6.88748 22.8132 6.33796 22.8132 5.65963Z" fill="white"/>
</svg>
